<svg width="24" height="25" viewBox="0 0 24 25" fill="none" xmlns="http://www.w3.org/2000/svg">
<path d="M21.0999 12.4999C21.0999 14.9134 20.1412 17.228 18.4346 18.9346C16.728 20.6412 14.4134 21.5999 11.9999 21.5999C9.58643 21.5999 7.27181 20.6412 5.56523 18.9346C3.85865 17.228 2.8999 14.9134 2.8999 12.4999C2.8999 10.0864 3.85865 7.77181 5.56523 6.06523C7.27181 4.35865 9.58643 3.3999 11.9999 3.3999C14.4134 3.3999 16.728 4.35865 18.4346 6.06523C20.1412 7.77181 21.0999 10.0864 21.0999 12.4999ZM13.202 18.502C13.5208 18.1832 13.6999 17.7508 13.6999 17.2999C13.6999 16.849 13.5208 16.4166 13.202 16.0978C12.8832 15.779 12.4508 15.5999 11.9999 15.5999C11.549 15.5999 11.1166 15.779 10.7978 16.0978C10.479 16.4166 10.2999 16.849 10.2999 17.2999C10.2999 17.7508 10.479 18.1832 10.7978 18.502C11.1166 18.8208 11.549 18.9999 11.9999 18.9999C12.4508 18.9999 12.8832 18.8208 13.202 18.502ZM11.9999 5.9999C11.549 5.9999 11.1166 6.17901 10.7978 6.49782C10.479 6.81663 10.2999 7.24903 10.2999 7.6999V12.4999C10.2999 12.9508 10.479 13.3832 10.7978 13.702C11.1166 14.0208 11.549 14.1999 11.9999 14.1999C12.4508 14.1999 12.8832 14.0208 13.202 13.702C13.5208 13.3832 13.6999 12.9508 13.6999 12.4999V7.6999C13.6999 7.24903 13.5208 6.81663 13.202 6.49782C12.8832 6.17901 12.4508 5.9999 11.9999 5.9999Z" fill="#E02424" stroke="#E02424"/>
</svg>
